<svg width="53" height="53" viewBox="0 0 53 53" fill="none" xmlns="http://www.w3.org/2000/svg">
<path d="M39.75 44.1667V37.5417H33.125V33.125H39.75V26.5H44.1667V33.125H50.7917V37.5417H44.1667V44.1667H39.75ZM6.62498 46.375C5.4104 46.375 4.37028 45.9422 3.50461 45.0765C2.63894 44.2108 2.20684 43.1714 2.20832 41.9583V11.0417C2.20832 9.82709 2.64115 8.78696 3.50682 7.9213C4.37248 7.05563 5.41187 6.62353 6.62498 6.625H37.5417C38.7562 6.625 39.7964 7.05784 40.662 7.9235C41.5277 8.78917 41.9598 9.82856 41.9583 11.0417V22.0833H37.5417V17.6667H6.62498V41.9583H35.3333V46.375H6.62498Z" fill="white"/>
</svg>
