<svg xmlns="http://www.w3.org/2000/svg" xmlns:xlink="http://www.w3.org/1999/xlink" width="43.397" height="43.397" viewBox="0 0 43.397 43.397">
  <defs>
    <filter id="Icon_awesome-user-circle" x="0" y="0" width="43.397" height="43.397" filterUnits="userSpaceOnUse">
      <feOffset dy="3" input="SourceAlpha"/>
      <feGaussianBlur stdDeviation="3" result="blur"/>
      <feFlood flood-opacity="0.161"/>
      <feComposite operator="in" in2="blur"/>
      <feComposite in="SourceGraphic"/>
    </filter>
  </defs>
  <g transform="matrix(1, 0, 0, 1, 0, 0)" filter="url(#Icon_awesome-user-circle)">
    <path id="Icon_awesome-user-circle-2" data-name="Icon awesome-user-circle" d="M12.7.563a12.7,12.7,0,1,0,12.7,12.7A12.7,12.7,0,0,0,12.7.563Zm0,4.915A4.506,4.506,0,1,1,8.192,9.984,4.506,4.506,0,0,1,12.7,5.478Zm0,17.614A9.812,9.812,0,0,1,5.2,19.6a5.709,5.709,0,0,1,5.044-3.062,1.253,1.253,0,0,1,.364.056,6.779,6.779,0,0,0,2.094.353,6.754,6.754,0,0,0,2.094-.353,1.253,1.253,0,0,1,.364-.056A5.709,5.709,0,0,1,20.2,19.6,9.812,9.812,0,0,1,12.7,23.092Z" transform="translate(9 5.44)" fill="#fe9426"/>
  </g>
</svg>
